# xmcd
#
# Track frame offsets:
#	150
#	11338
#	21178
#	34030
#	45583
#	57223
#	69406
#	81715
#	94791
#	110528
#	124141
#	134626
#	145483
#	155690
#	167073
#
# Disc length: 2395 seconds
#
# Revision: 0
# Processed by: cddbd v1.5.2PL0 Copyright (c) Steve Scherf et al.
# Submitted via: dBpowerAMP V4.0
#
DISCID=d209590f
DTITLE=John Lee Hooker - The Essential John Lee Hooker
DYEAR=2006
DGENRE=Blues
TTITLE0=Boom Boom
TTITLE1=Dimples
TTITLE2=I See You When You're Weak
TTITLE3=I Love You Honey
TTITLE4=Boogie Chillen
TTITLE5=I'm In The Mood
TTITLE6=Crawlin Kingsnake
TTITLE7=Don't Look Back
TTITLE8=It Serves Me Right To Suffer
TTITLE9=Time Is Marchin
TTITLE10=Dusty Road
TTITLE11=No Shoes
TTITLE12=Big Legs Tight Skirt
TTITLE13=Wheel and Deal
TTITLE14=Drug Store Woman
EXTD=
EXTT0=
EXTT1=
EXTT2=
EXTT3=
EXTT4=
EXTT5=
EXTT6=
EXTT7=
EXTT8=
EXTT9=
EXTT10=
EXTT11=
EXTT12=
EXTT13=
EXTT14=
PLAYORDER=
